<svg xmlns="http://www.w3.org/2000/svg" viewBox="0 0 512 512">
  <rect width="512" height="512" fill="none"/>
  <g fill="#0076d6">
    <rect x="76" y="9" width="27" height="81" rx="12"/>
    <rect x="150" y="9" width="27" height="81" rx="12"/>
    <rect x="28" y="84" width="195" height="170" rx="18"/>
    <rect x="83" y="224" width="85" height="90" rx="18"/>
    <rect x="105" y="274" width="41" height="114" rx="8"/>
    <path d="M125 344 C125 468 330 495 410 444" stroke="#0076d6" stroke-width="42" fill="none" stroke-linecap="round"/>
    <rect x="313" y="16" width="85" height="47" rx="15"/>
    <rect x="228" y="43" width="240" height="400" rx="45"/>
  </g>
  <rect x="246" y="63" width="204" height="362" rx="31" fill="#fff"/>
  <rect x="265" y="93" width="166" height="58" rx="10" fill="#91cc60"/>
  <rect x="265" y="163" width="166" height="58" rx="10" fill="#58b446"/>
  <rect x="265" y="233" width="166" height="58" rx="10" fill="#239648"/>
  <rect x="265" y="303" width="166" height="58" rx="10" fill="#007e46"/>
  <polygon points="354,184 314,254 343,254 330,354 404,239 375,239" fill="#fff"/>
  <polygon points="136,104 99,168 127,168 115,239 177,155 151,155" fill="#fff"/>
</svg>